<?xml version="1.0" encoding="utf-8"?>
<!-- Generator: Adobe Illustrator 23.1.0, SVG Export Plug-In . SVG Version: 6.00 Build 0)  -->
<svg version="1.1" xmlns="http://www.w3.org/2000/svg" xmlns:xlink="http://www.w3.org/1999/xlink" x="0px" y="0px"
	 viewBox="0 0 200 50" style="enable-background:new 0 0 200 50;" xml:space="preserve">
<style type="text/css">
	.st0{fill:#263238;}
</style>
<g id="Layer_1">
	<g>
		<path class="st0" d="M18.89,18.44v19.1h-1.26v-19.1H18.89z"/>
		<path class="st0" d="M23.76,30.49v0.25c0,0.98,0.11,1.84,0.34,2.59c0.23,0.74,0.55,1.37,0.97,1.87c0.42,0.5,0.93,0.88,1.52,1.14
			s1.26,0.38,2,0.38c0.66,0,1.23-0.07,1.71-0.22s0.89-0.31,1.21-0.49c0.33-0.18,0.59-0.34,0.78-0.49c0.19-0.14,0.33-0.22,0.42-0.22
			c0.11,0,0.2,0.04,0.26,0.13l0.34,0.42c-0.21,0.26-0.49,0.51-0.83,0.74s-0.73,0.42-1.16,0.58c-0.42,0.16-0.88,0.29-1.37,0.39
			c-0.49,0.1-0.97,0.14-1.46,0.14c-0.89,0-1.71-0.16-2.44-0.47c-0.74-0.31-1.37-0.76-1.89-1.36s-0.93-1.32-1.21-2.19
			c-0.28-0.86-0.43-1.85-0.43-2.96c0-0.94,0.13-1.8,0.4-2.59c0.27-0.79,0.65-1.47,1.16-2.05c0.5-0.57,1.12-1.02,1.85-1.35
			c0.73-0.32,1.56-0.49,2.49-0.49c0.74,0,1.42,0.13,2.05,0.38c0.63,0.25,1.18,0.62,1.64,1.11s0.83,1.08,1.1,1.79s0.4,1.52,0.4,2.44
			c0,0.19-0.03,0.32-0.08,0.39c-0.05,0.07-0.14,0.11-0.26,0.11H23.76z M32.48,29.69c0-0.7-0.1-1.33-0.3-1.88
			c-0.2-0.56-0.48-1.03-0.83-1.41s-0.79-0.68-1.28-0.89c-0.49-0.21-1.04-0.31-1.63-0.31c-0.67,0-1.28,0.1-1.81,0.31
			c-0.53,0.21-1,0.51-1.39,0.91c-0.39,0.39-0.7,0.87-0.94,1.42c-0.24,0.55-0.39,1.17-0.47,1.85H32.48z"/>
		<path class="st0" d="M45.8,26.22c-0.04,0.04-0.09,0.08-0.12,0.11c-0.04,0.03-0.09,0.05-0.16,0.05c-0.09,0-0.21-0.06-0.35-0.18
			s-0.35-0.25-0.6-0.39c-0.25-0.14-0.57-0.27-0.95-0.39s-0.84-0.18-1.39-0.18c-0.75,0-1.42,0.13-2,0.4
			c-0.58,0.27-1.07,0.65-1.48,1.15c-0.4,0.5-0.71,1.1-0.91,1.81c-0.21,0.71-0.31,1.51-0.31,2.39c0,0.92,0.11,1.73,0.32,2.44
			c0.21,0.71,0.52,1.31,0.91,1.79c0.39,0.49,0.87,0.86,1.43,1.11c0.56,0.25,1.18,0.38,1.86,0.38c0.63,0,1.16-0.07,1.58-0.22
			c0.42-0.15,0.77-0.31,1.05-0.49c0.28-0.17,0.49-0.34,0.65-0.49s0.29-0.22,0.39-0.22s0.19,0.04,0.26,0.13l0.33,0.42
			c-0.2,0.26-0.46,0.51-0.76,0.74s-0.65,0.42-1.04,0.59c-0.39,0.17-0.8,0.29-1.25,0.39c-0.45,0.09-0.92,0.14-1.41,0.14
			c-0.83,0-1.59-0.15-2.28-0.45c-0.69-0.3-1.28-0.74-1.77-1.31c-0.49-0.57-0.88-1.28-1.16-2.11c-0.28-0.83-0.41-1.78-0.41-2.84
			c0-1,0.13-1.91,0.39-2.73c0.26-0.82,0.65-1.53,1.16-2.13c0.51-0.6,1.13-1.06,1.86-1.39c0.73-0.33,1.57-0.49,2.51-0.49
			c0.85,0,1.6,0.14,2.26,0.41c0.66,0.27,1.23,0.64,1.72,1.1L45.8,26.22z"/>
		<path class="st0" d="M52.97,37.75c-0.88,0-1.57-0.25-2.07-0.74s-0.74-1.25-0.74-2.27v-8.93h-1.88c-0.1,0-0.17-0.03-0.24-0.08
			c-0.06-0.05-0.09-0.13-0.09-0.22v-0.49l2.23-0.16l0.31-4.67c0.02-0.08,0.05-0.15,0.1-0.21c0.05-0.06,0.13-0.09,0.22-0.09h0.59
			v4.99h4.12v0.93h-4.12v8.86c0,0.36,0.05,0.67,0.14,0.93c0.09,0.26,0.22,0.47,0.38,0.64c0.16,0.17,0.35,0.29,0.57,0.37
			c0.22,0.08,0.46,0.12,0.71,0.12c0.32,0,0.59-0.05,0.81-0.14c0.23-0.09,0.42-0.19,0.59-0.3c0.17-0.11,0.3-0.21,0.41-0.3
			s0.19-0.14,0.25-0.14c0.07,0,0.14,0.04,0.21,0.13l0.34,0.55c-0.33,0.37-0.76,0.66-1.27,0.89C54.05,37.64,53.52,37.75,52.97,37.75z
			"/>
		<path class="st0" d="M68.53,24.48v13.06h-0.7c-0.22,0-0.35-0.11-0.38-0.34l-0.12-1.94c-0.6,0.75-1.3,1.36-2.09,1.81
			c-0.79,0.46-1.67,0.68-2.65,0.68c-0.73,0-1.36-0.11-1.9-0.34c-0.54-0.23-0.99-0.56-1.35-0.99s-0.63-0.95-0.81-1.55
			c-0.18-0.6-0.28-1.29-0.28-2.05v-8.35h1.26v8.35c0,1.23,0.28,2.19,0.84,2.88c0.56,0.7,1.41,1.04,2.56,1.04
			c0.85,0,1.64-0.22,2.38-0.65c0.74-0.43,1.4-1.04,1.98-1.81v-9.82H68.53z"/>
		<path class="st0" d="M74.01,27.63c0.2-0.53,0.43-1.01,0.69-1.42s0.56-0.77,0.89-1.06c0.34-0.29,0.71-0.51,1.13-0.66
			c0.42-0.15,0.88-0.23,1.39-0.23c0.27,0,0.54,0.02,0.8,0.07c0.26,0.05,0.49,0.13,0.7,0.26l-0.1,0.87
			c-0.04,0.14-0.13,0.21-0.25,0.21c-0.1,0-0.27-0.03-0.48-0.09c-0.21-0.06-0.5-0.09-0.85-0.09c-0.51,0-0.96,0.08-1.35,0.23
			s-0.74,0.38-1.05,0.69c-0.31,0.31-0.58,0.68-0.81,1.14s-0.44,0.97-0.64,1.56v8.46h-1.26V24.48h0.67c0.15,0,0.25,0.03,0.31,0.09
			c0.06,0.06,0.1,0.17,0.12,0.31L74.01,27.63z"/>
		<path class="st0" d="M81.81,30.49v0.25c0,0.98,0.11,1.84,0.34,2.59c0.23,0.74,0.55,1.37,0.97,1.87c0.42,0.5,0.93,0.88,1.52,1.14
			s1.26,0.38,2,0.38c0.66,0,1.23-0.07,1.71-0.22s0.89-0.31,1.21-0.49c0.33-0.18,0.59-0.34,0.78-0.49c0.19-0.14,0.33-0.22,0.42-0.22
			c0.11,0,0.2,0.04,0.26,0.13l0.34,0.42c-0.21,0.26-0.49,0.51-0.83,0.74s-0.73,0.42-1.16,0.58c-0.42,0.16-0.88,0.29-1.37,0.39
			c-0.49,0.1-0.97,0.14-1.46,0.14c-0.89,0-1.71-0.16-2.44-0.47c-0.74-0.31-1.37-0.76-1.89-1.36s-0.93-1.32-1.21-2.19
			c-0.28-0.86-0.43-1.85-0.43-2.96c0-0.94,0.13-1.8,0.4-2.59c0.27-0.79,0.65-1.47,1.16-2.05c0.5-0.57,1.12-1.02,1.85-1.35
			c0.73-0.32,1.56-0.49,2.49-0.49c0.74,0,1.42,0.13,2.05,0.38c0.63,0.25,1.18,0.62,1.64,1.11s0.83,1.08,1.1,1.79s0.4,1.52,0.4,2.44
			c0,0.19-0.03,0.32-0.08,0.39c-0.05,0.07-0.14,0.11-0.26,0.11H81.81z M90.53,29.69c0-0.7-0.1-1.33-0.3-1.88
			c-0.2-0.56-0.48-1.03-0.83-1.41s-0.79-0.68-1.28-0.89c-0.49-0.21-1.04-0.31-1.63-0.31c-0.67,0-1.28,0.1-1.81,0.31
			c-0.53,0.21-1,0.51-1.39,0.91c-0.39,0.39-0.7,0.87-0.94,1.42c-0.24,0.55-0.39,1.17-0.47,1.85H90.53z"/>
	</g>
</g>
<g id="_x3C_Layer_x3E_">
	<g>
		<path class="st0" d="M103.46,17.59h3.28l-7.41,19.95h-3.36L103.46,17.59z"/>
	</g>
	<g>
		<path class="st0" d="M111,17.59h3.28l-7.41,19.95h-3.36L111,17.59z"/>
	</g>
	<g>
		<path class="st0" d="M124.81,28.85c-0.37-0.46-0.78-0.81-1.23-1.04c-0.45-0.24-0.99-0.34-1.6-0.3c-0.5-0.03-0.95,0.03-1.35,0.21
			c-0.41,0.17-0.76,0.41-1.05,0.72c-0.29,0.31-0.52,0.67-0.69,1.1c-0.16,0.42-0.24,0.9-0.24,1.43c0,0.47,0.08,0.92,0.26,1.33
			s0.4,0.78,0.7,1.08s0.65,0.54,1.05,0.71c0.41,0.17,0.85,0.27,1.33,0.31c0.4-0.03,0.77-0.12,1.1-0.25s0.62-0.3,0.88-0.51
			c0.26-0.21,0.48-0.44,0.66-0.71s0.33-0.51,0.43-0.74l3.53,0.97c-0.15,0.51-0.4,1.05-0.75,1.6c-0.36,0.56-0.82,1.06-1.38,1.52
			c-0.57,0.46-1.24,0.83-2.03,1.13c-0.78,0.3-1.67,0.45-2.67,0.45c-1.02,0-1.95-0.19-2.81-0.56c-0.86-0.37-1.59-0.88-2.21-1.52
			c-0.62-0.64-1.1-1.39-1.44-2.26c-0.35-0.86-0.52-1.79-0.52-2.78c0-0.98,0.18-1.9,0.53-2.74s0.84-1.58,1.47-2.21
			s1.37-1.12,2.22-1.47s1.79-0.51,2.8-0.47c0.72-0.03,1.41,0.05,2.09,0.24c0.67,0.2,1.32,0.49,1.92,0.88h2.55v3.86H124.81z"/>
		<path class="st0" d="M129.89,30.85c0-0.97,0.18-1.87,0.53-2.72c0.35-0.85,0.84-1.59,1.46-2.22c0.62-0.63,1.37-1.13,2.23-1.5
			c0.86-0.37,1.81-0.55,2.85-0.55s1.99,0.18,2.85,0.55c0.87,0.37,1.61,0.87,2.24,1.5c0.62,0.63,1.11,1.37,1.46,2.22
			c0.35,0.85,0.52,1.75,0.52,2.72s-0.17,1.87-0.51,2.72s-0.82,1.59-1.44,2.23c-0.62,0.64-1.36,1.14-2.23,1.51
			c-0.87,0.37-1.83,0.55-2.89,0.55c-1.07,0-2.04-0.18-2.9-0.55c-0.87-0.37-1.61-0.87-2.22-1.5c-0.62-0.63-1.09-1.37-1.43-2.22
			S129.89,31.83,129.89,30.85z M133.72,30.85c0,0.5,0.09,0.97,0.26,1.39c0.17,0.42,0.4,0.79,0.7,1.1s0.64,0.55,1.03,0.72
			s0.81,0.26,1.25,0.26c0.45,0,0.87-0.08,1.26-0.25c0.39-0.17,0.73-0.4,1.01-0.71c0.29-0.31,0.51-0.67,0.67-1.1
			c0.16-0.42,0.24-0.89,0.24-1.4c0-0.53-0.08-1.01-0.24-1.44c-0.16-0.43-0.39-0.79-0.67-1.09c-0.29-0.3-0.62-0.53-1.01-0.69
			c-0.39-0.16-0.81-0.23-1.26-0.22c-0.44-0.01-0.86,0.07-1.25,0.22s-0.73,0.39-1.03,0.69c-0.29,0.3-0.53,0.66-0.7,1.09
			C133.81,29.84,133.72,30.32,133.72,30.85z"/>
		<path class="st0" d="M153.82,17.59h5.81v16.44h2.59v3.51h-6.54v-0.51c-0.46,0.24-0.93,0.43-1.42,0.56
			c-0.48,0.14-0.97,0.21-1.47,0.21c-1.02,0-1.95-0.18-2.8-0.54s-1.58-0.86-2.19-1.49c-0.61-0.63-1.09-1.37-1.43-2.22
			c-0.34-0.85-0.51-1.76-0.51-2.74c0-0.97,0.17-1.88,0.51-2.72c0.34-0.84,0.81-1.58,1.41-2.2c0.6-0.62,1.33-1.12,2.17-1.47
			s1.77-0.54,2.78-0.54c0.56,0,1.08,0.05,1.56,0.16s0.95,0.26,1.4,0.46v-3.37h-1.86V17.59z M153.01,34.26
			c0.56-0.02,1.08-0.16,1.53-0.44s0.84-0.63,1.13-1.08v-3.91c-0.3-0.45-0.69-0.8-1.16-1.06c-0.47-0.25-0.98-0.38-1.51-0.37
			c-0.44-0.01-0.86,0.07-1.25,0.23c-0.39,0.16-0.73,0.39-1.03,0.69c-0.29,0.3-0.53,0.66-0.7,1.08c-0.17,0.42-0.26,0.89-0.26,1.42
			c0,0.52,0.09,0.99,0.26,1.42c0.17,0.42,0.4,0.78,0.7,1.08s0.64,0.52,1.03,0.67C152.15,34.16,152.56,34.25,153.01,34.26z"/>
		<path class="st0" d="M167.36,31.74l0.04,0.4c0.09,0.38,0.25,0.72,0.48,1.01c0.23,0.29,0.49,0.53,0.8,0.73
			c0.31,0.2,0.65,0.34,1.03,0.44c0.38,0.1,0.76,0.15,1.14,0.15s0.75-0.02,1.1-0.07c0.35-0.05,0.68-0.11,1.01-0.19
			c0.33-0.08,0.64-0.18,0.95-0.28c0.31-0.11,0.62-0.22,0.94-0.34l1.41,2.63c-0.49,0.3-0.93,0.55-1.34,0.76
			c-0.41,0.21-0.81,0.38-1.22,0.52c-0.41,0.14-0.85,0.24-1.31,0.3c-0.46,0.06-1,0.1-1.62,0.1c-1.15,0-2.18-0.19-3.08-0.57
			c-0.9-0.38-1.65-0.9-2.26-1.54s-1.08-1.41-1.4-2.28s-0.48-1.79-0.48-2.77s0.17-1.89,0.51-2.74s0.81-1.6,1.43-2.24
			c0.62-0.64,1.35-1.14,2.21-1.51c0.85-0.37,1.8-0.55,2.85-0.55s1.97,0.17,2.78,0.52c0.81,0.35,1.49,0.83,2.05,1.44
			s0.98,1.33,1.28,2.15c0.3,0.83,0.46,1.71,0.49,2.66c0.03,0.21,0.04,0.42,0.04,0.63c0,0.21,0,0.42-0.02,0.65H167.36z M170.42,26.89
			c-0.48,0-0.89,0.06-1.22,0.17c-0.34,0.12-0.62,0.27-0.85,0.47c-0.23,0.2-0.42,0.43-0.55,0.69c-0.14,0.26-0.24,0.53-0.32,0.81h5.55
			c-0.06-0.29-0.15-0.56-0.26-0.82c-0.11-0.26-0.26-0.48-0.46-0.68c-0.2-0.2-0.45-0.35-0.75-0.47
			C171.25,26.95,170.87,26.89,170.42,26.89z"/>
		<path class="st0" d="M179.01,25.92c0-0.32,0.06-0.61,0.17-0.89c0.12-0.28,0.28-0.52,0.48-0.72s0.45-0.37,0.72-0.49
			c0.28-0.12,0.58-0.18,0.9-0.18c0.31,0,0.6,0.06,0.87,0.18s0.51,0.28,0.72,0.49s0.37,0.45,0.49,0.72c0.12,0.28,0.18,0.58,0.18,0.89
			c0,0.32-0.06,0.61-0.18,0.89c-0.12,0.28-0.28,0.52-0.49,0.72c-0.21,0.21-0.45,0.37-0.72,0.49c-0.27,0.12-0.56,0.18-0.87,0.18
			c-0.33,0-0.63-0.06-0.9-0.18c-0.28-0.12-0.52-0.28-0.72-0.49c-0.21-0.21-0.37-0.45-0.48-0.72
			C179.07,26.53,179.01,26.23,179.01,25.92z M179.01,35.69c0-0.32,0.06-0.61,0.17-0.89c0.12-0.28,0.28-0.52,0.48-0.73
			c0.21-0.21,0.45-0.37,0.72-0.49c0.28-0.12,0.58-0.18,0.9-0.18c0.31,0,0.6,0.06,0.87,0.18c0.27,0.12,0.51,0.28,0.72,0.49
			c0.21,0.21,0.37,0.45,0.49,0.73c0.12,0.28,0.18,0.57,0.18,0.89s-0.06,0.61-0.18,0.89c-0.12,0.28-0.28,0.52-0.49,0.72
			c-0.21,0.21-0.45,0.37-0.72,0.49c-0.27,0.12-0.56,0.18-0.87,0.18c-0.33,0-0.63-0.06-0.9-0.18c-0.28-0.12-0.52-0.28-0.72-0.49
			c-0.21-0.21-0.37-0.45-0.48-0.72C179.07,36.3,179.01,36,179.01,35.69z"/>
	</g>
</g>
</svg>
